<?xml version="1.0" encoding="utf-8"?>
<svg viewBox="0 0 164 165" xmlns="http://www.w3.org/2000/svg">
  <circle cx="81.506" cy="82.496" r="80" stroke="black" stroke-width="0" fill="#006600"/>
  <g transform="matrix(1, 0, 0, 1, -0.493918, -0.203563)">
    <g>
      <g id="XMLID_12_">
        <g>
          <path fill="#ff0000" d="M 8.5 107.6 c -1.4 -4 -2.4 -8.2 -3.1 -12.4 l 0 0 l 76.4 -12.4 l 0 0 L 8.5 107.6 z"/>
          <rect x="81.9" y="82.8" width="0" height="0"/>
          <path fill="#ff0000" d="M 143.4 35.4 L 82 82.7 l 0 0 l 52.7 -56.7 l 0 0 C 137.9 28.9 140.7 32 143.4 35.4 z"/>
          <path d="M 5.6 69.6 c 0.7 -4.3 1.8 -8.4 3.2 -12.3 l 0 0 l 73.1 25.4 l 0 0 l 0 0 l -0.1 0 L 5.6 69.6 z"/>
          <path fill="#ff0000" d="M 4.8 76 c 0.2 -2.2 0.5 -4.3 0.8 -6.4 l 76.3 13.1 L 4.5 82.4 C 4.5 80.3 4.6 78.2 4.8 76 z"/>
          <path d="M 50.5 153.6 c -3.9 -1.7 -7.7 -3.8 -11.2 -6.2 l 42.7 -64.7 L 50.5 153.6 z"/>
          <path d="M 113.4 11.9 L 82 82.7 l 19.4 -75 C 105.5 8.8 109.6 10.2 113.4 11.9 z"/>
          <path fill="#ff0000" d="M 8.8 57.3 c 1.4 -4.1 3.1 -8 5.2 -11.7 l 68 37.1 l 0 0 L 8.8 57.3 L 8.8 57.3 z"/>
          <rect x="82" y="82.7" fill="#ff0000" width="0" height="0"/>
          <rect x="81.9" y="82.7" fill="#ff0000" width="0" height="0"/>
          <path fill="#ff0000" d="M 150 119.9 c -2.1 3.8 -4.4 7.4 -7.1 10.7 L 82 82.8 l 68 37.1 H 150 z"/>
          <polygon fill="#ff0000" points="81.9,82.8 81.9,82.8 81.9,82.8 81.9,82.8"/>
          <path fill="#ff0000" d="M 50.5 153.6 l 31.4 -70.8 l -19.3 75 l 0 0 C 58.4 156.7 54.4 155.3 50.5 153.6 z"/>
          <rect x="82" y="82.7" fill="#ff0000" width="0" height="0"/>
          <path d="M 158.4 95.9 l 0 0 L 82 82.8 l 77.4 0.3 l 0 0 c 0 2.1 -0.1 4.3 -0.3 6.4 C 159 91.7 158.7 93.8 158.4 95.9 z"/>
          <path d="M 124.1 147.8 c -3.6 2.3 -7.4 4.4 -11.3 6.1 L 82 82.8 l 0 0 l 42.1 65 l 0 0 L 124.1 147.8 z"/>
          <path d="M 4.5 82.4 l 77.4 0.3 l 0.1 0 l 0 0 l 0 0 L 5.5 95.1 L 5.5 95.1 C 4.8 91 4.5 86.7 4.5 82.4 z"/>
          <path fill="#ff0000" d="M 101.3 7.7 L 82 82.7 l 0 0 l 6.8 -77.2 l 0 0 C 93.1 5.9 97.3 6.7 101.3 7.7 z"/>
          <path fill="#ff0000" d="M 150.3 46.2 l 0 0 c 2 3.8 3.7 7.7 5.1 11.8 l 0 0 L 82 82.7 L 150.3 46.2 z"/>
          <path fill="#ff0000" d="M 20.6 130.1 c -2.6 -3.4 -4.9 -7 -7 -10.8 l 68.3 -36.6 l 0 0 L 20.6 130.1 z"/>
          <path d="M 155.4 57.9 c 1.4 4 2.4 8.2 3.1 12.4 l 0 0 L 82 82.7 l 0 0 l 73.4 -24.8 L 155.4 57.9 z"/>
          <polygon points="82,82.7 82,82.7 82,82.7"/>
          <rect x="81.9" y="82.7" width="0" height="0"/>
          <path d="M 13.6 119.3 c -2 -3.8 -3.7 -7.7 -5.1 -11.8 l 73.4 -24.8 L 13.6 119.3 z"/>
          <path fill="#ff0000" d="M 100.7 158 L 82 82.8 l 0 0 l 30.8 71.1 C 108.9 155.6 104.8 157 100.7 158 z"/>
          <path d="M 142.9 130.6 c -2.7 3.4 -5.6 6.5 -8.7 9.4 L 82 82.8 L 142.9 130.6 z"/>
          <path fill="#ff0000" d="M 21 34.9 c 2.7 -3.4 5.6 -6.5 8.7 -9.4 l 52.2 57.2 L 21 34.9 z"/>
          <path d="M 63.3 7.5 l 18.7 75.2 L 51.2 11.6 l 0 0 c 3.9 -1.7 7.9 -3.1 12.1 -4.1 L 63.3 7.5 z"/>
          <path d="M 82 82.8 l 0 0 l -6.8 77.2 c -4.3 -0.4 -8.6 -1.1 -12.6 -2.2 l 0 0 l 19.3 -75 l 0 0 l 0 0 l 0 0 L 82 82.8 z"/>
          <rect x="82" y="82.8" width="0" height="0"/>
          <polygon fill="#ff0000" points="82,82.7 82,82.7 82,82.7 82,82.7 82,82.7"/>
          <path d="M 29.8 25.5 c 3.2 -2.9 6.5 -5.5 10.1 -7.8 l 0 0 l 42.1 65 l 0 0 l 0 0 l 0 0 L 29.8 25.5 z"/>
          <path d="M 20.6 130.1 L 81.9 82.8 l -52.7 56.8 l 0 0 C 26.1 136.6 23.2 133.5 20.6 130.1 z"/>
          <path fill="#ff0000" d="M 134.2 140 c -3.2 2.9 -6.5 5.5 -10.1 7.8 l 0 0 l 0 0 L 82 82.8 l 0 0 l 0 0 l 52.2 57.2 L 134.2 140 z"/>
          <rect x="82" y="82.7" width="0" height="0"/>
          <polygon points="81.9,82.7 81.9,82.7 81.9,82.7"/>
          <polygon fill="#ff0000" points="82,82.8 82,82.8 82,82.8 82,82.8"/>
          <rect x="82" y="82.7" fill="#ff0000" width="0" height="0"/>
          <path fill="#ff0000" d="M 124.7 18.1 L 82 82.7 l 31.4 -70.8 l 0 0 C 117.4 13.7 121.1 15.7 124.7 18.1 z"/>
          <path fill="#ff0000" d="M 75.9 5.5 l 6 77.2 L 63.3 7.5 C 67.4 6.5 71.6 5.8 75.9 5.5 z"/>
          <path d="M 124.7 18.1 c 3.6 2.4 7 5 10.1 7.9 l 0 0 L 82 82.7 l 0 0 l 0 0 L 124.7 18.1 z"/>
          <path fill="#ff0000" d="M 39.3 147.5 c -3.6 -2.4 -6.9 -5 -10.1 -7.9 l 0 0 L 81.9 82.8 l 0 0 l 0 0 L 39.3 147.5 z"/>
          <path fill="#ff0000" d="M 39.9 17.7 c 3.6 -2.3 7.4 -4.3 11.3 -6 l 30.8 71.1 l 0 0 L 39.9 17.7 L 39.9 17.7 z"/>
          <polygon points="82,82.7 82,82.7 82,82.7 82,82.7 82,82.7"/>
          <path fill="#ff0000" d="M 158.4 95.9 c -0.7 4.3 -1.8 8.4 -3.2 12.4 l 0 0 L 82 82.8 L 82 82.8 l 0 0 l 0.1 0 l 76.3 13.1 L 158.4 95.9 z"/>
          <path d="M 14 45.6 c 2.1 -3.8 4.4 -7.4 7.1 -10.7 l 60.9 47.8 L 14 45.6 z"/>
          <path d="M 88 160 l 0 0 l -6 -77.2 l 18.7 75.2 C 96.6 159 92.3 159.7 88 160 z"/>
          <path d="M 82 82.7 l 61.3 -47.3 c 2.6 3.4 5 7 7 10.8 l 0 0 L 82 82.7 z"/>
          <polygon points="82,82.8 82,82.8 82,82.8 82,82.8"/>
          <path fill="#ff0000" d="M 159.5 83.1 l 0 0 l -77.4 -0.3 l -0.1 0 l 0 0 l 0 0 l 76.4 -12.4 l 0 0 C 159.2 74.5 159.5 78.8 159.5 83.1 z"/>
          <rect x="82" y="82.7" fill="#ff0000" width="0" height="0"/>
          <path d="M 155.2 108.2 c -1.4 4.1 -3.1 8 -5.2 11.7 l 0 0 L 82 82.8 l 0 0 l 0 0 l 73.2 25.5 L 155.2 108.2 z"/>
        </g>
        <g>
          <path fill="none" stroke="#000000" d="M 134.2 140 c -3.2 2.9 -6.5 5.5 -10.1 7.8 c -3.6 2.3 -7.4 4.4 -11.3 6.1 c -3.9 1.7 -7.9 3.1 -12.1 4.1 c -4.1 1 -8.3 1.7 -12.6 2 c -4.2 0.3 -8.5 0.3 -12.8 -0.1 c -4.3 -0.4 -8.6 -1.1 -12.6 -2.2 c -4.2 -1.1 -8.2 -2.5 -12.1 -4.2 c -3.9 -1.7 -7.7 -3.8 -11.2 -6.2 c -3.6 -2.4 -6.9 -5 -10.1 -7.9 c -3.1 -2.9 -6 -6.1 -8.6 -9.4 c -2.6 -3.4 -4.9 -7 -7 -10.8 c -2 -3.8 -3.7 -7.7 -5.1 -11.8 c -1.4 -4 -2.4 -8.2 -3.1 -12.4 c -0.7 -4.1 -1 -8.4 -1 -12.7 c 0 -2.1 0.1 -4.3 0.3 -6.4 c 0.2 -2.2 0.5 -4.3 0.8 -6.4 c 0.7 -4.3 1.8 -8.4 3.2 -12.3 c 1.4 -4.1 3.1 -8 5.2 -11.7 c 2.1 -3.8 4.4 -7.4 7.1 -10.7 c 2.7 -3.4 5.6 -6.5 8.7 -9.4 c 3.2 -2.9 6.5 -5.5 10.1 -7.8 c 3.6 -2.3 7.4 -4.3 11.3 -6"/>
          <path fill="none" stroke="#000000" d="M 113.4 11.9 c 3.9 1.7 7.7 3.8 11.2 6.1 c 3.6 2.4 7 5 10.1 7.9 c 3.1 2.9 6 6 8.6 9.4 c 2.6 3.4 5 7 7 10.8 c 2 3.8 3.7 7.7 5.1 11.8 c 1.4 4 2.4 8.2 3.1 12.4 c 0.7 4.1 1 8.4 1 12.7 c 0 2.1 -0.1 4.3 -0.3 6.4 c -0.2 2.1 -0.5 4.3 -0.8 6.4 c -0.7 4.3 -1.8 8.4 -3.2 12.4 c -1.4 4.1 -3.1 8 -5.2 11.7 c -2.1 3.8 -4.4 7.4 -7.1 10.7 c -2.7 3.4 -5.6 6.5 -8.7 9.4"/>
          <path fill="none" stroke="#000000" d="M 75.9 5.5 c 4.2 -0.3 8.5 -0.3 12.8 0.1 l 0 0 c 4.3 0.4 8.5 1.1 12.6 2.2 c 4.2 1.1 8.2 2.5 12.1 4.2"/>
          <path fill="none" stroke="#000000" d="M 63.3 7.5 c 4.1 -1 8.3 -1.7 12.6 -2"/>
          <path fill="none" stroke="#000000" d="M 51.2 11.6 c 3.9 -1.7 7.9 -3.1 12.1 -4.1"/>
          <line fill="none" stroke="#000" x1="81.979" y1="82.775" x2="75.226" y2="159.961"/>
          <line fill="none" stroke="#000" x1="81.988" y1="82.814" x2="88.017" y2="160.017"/>
          <line fill="none" stroke="#000" x1="81.979" y1="82.775" x2="81.989" y2="82.802"/>
          <polyline fill="none" stroke="#000000" points="82,82.8 82,82.8 100.7,158 100.7,158"/>
          <polyline fill="none" stroke="#000000" points="82,82.8 82,82.8 112.8,153.9"/>
          <polyline fill="none" stroke="#000000" points="82,82.8 82,82.8 82,82.8 82,82.8 124.1,147.8"/>
          <polyline fill="none" stroke="#000000" points="82,82.8 134.2,140 134.2,140 134.2,140"/>
          <line fill="none" stroke="#000" x1="82.016" y1="82.791" x2="142.941" y2="130.634"/>
          <polyline fill="none" stroke="#000000" points="82,82.8 82,82.8 82,82.8 150,119.9"/>
          <polyline fill="none" stroke="#000000" points="82,82.8 82,82.8 155.2,108.2"/>
          <line fill="none" stroke="#000" x1="82.045" y1="82.755" x2="158.349" y2="95.885"/>
          <polyline fill="none" stroke="#000000" points="82,82.7 82,82.8 159.5,83.1"/>
          <line fill="none" stroke="#000" x1="82.008" y1="82.739" x2="158.455" y2="70.382"/>
          <line fill="none" stroke="#000" x1="81.981" y1="82.749" x2="81.995" y2="82.738"/>
          <polyline fill="none" stroke="#000000" points="82,82.7 82,82.7 82,82.7 155.4,58"/>
          <line fill="none" stroke="#000" x1="82.009" y1="82.725" x2="150.315" y2="46.189"/>
          <polyline fill="none" stroke="#000000" points="82,82.7 82,82.7 82,82.7 82,82.7 82,82.7 82,82.7 143.4,35.4"/>
          <polyline fill="none" stroke="#000000" points="82,82.7 82,82.7 134.7,26"/>
          <polyline fill="none" stroke="#000000" points="82,82.7 124.7,18.1 124.7,18"/>
          <polyline fill="none" stroke="#000000" points="82,82.7 82,82.7 82,82.7 82,82.7 113.4,11.9 113.4,11.9 113.4,11.9"/>
          <polyline fill="none" stroke="#000000" points="82,82.7 82,82.7 101.3,7.7"/>
          <polyline fill="none" stroke="#000000" points="82,82.7 88.7,5.6 88.7,5.5"/>
          <polyline fill="none" stroke="#000000" points="82,82.7 82,82.7 82,82.7 75.9,5.5 75.9,5.5"/>
          <polyline fill="none" stroke="#000000" points="82,82.7 63.3,7.5 63.3,7.5 63.3,7.5"/>
          <polyline fill="none" stroke="#000000" points="82,82.7 82,82.7 51.2,11.6 51.2,11.6 51.2,11.6"/>
          <polyline fill="none" stroke="#000000" points="82,82.7 82,82.7 82,82.7 82,82.7 39.9,17.7"/>
          <polyline fill="none" stroke="#000000" points="81.9,82.7 29.8,25.5 29.7,25.5"/>
          <polyline fill="none" stroke="#000000" points="81.9,82.7 81.9,82.7 21,34.9"/>
          <polyline fill="none" stroke="#000000" points="81.9,82.7 81.9,82.7 14,45.6"/>
          <polyline fill="none" stroke="#000000" points="82,82.7 82,82.7 81.9,82.7"/>
          <polyline fill="none" stroke="#000000" points="81.9,82.7 81.9,82.7 81.9,82.7 8.8,57.3"/>
          <line fill="none" stroke="#000" x1="81.891" y1="82.742" x2="5.6" y2="69.611"/>
          <polyline fill="none" stroke="#000000" points="81.9,82.7 81.9,82.7 4.5,82.4"/>
          <line fill="none" stroke="#000" x1="81.928" y1="82.758" x2="5.493" y2="95.129"/>
          <polyline fill="none" stroke="#000000" points="82,82.7 81.9,82.7 81.9,82.8"/>
          <polyline fill="none" stroke="#000000" points="81.9,82.8 81.9,82.8 81.9,82.8 8.5,107.6"/>
          <polyline fill="none" stroke="#000000" points="81.9,82.8 81.9,82.8 13.6,119.3"/>
          <polyline fill="none" stroke="#000000" points="82,82.7 82,82.7 82,82.8 81.9,82.8 81.9,82.8 20.6,130.1 20.6,130.1"/>
          <polyline fill="none" stroke="#000000" points="82,82.8 81.9,82.8 29.2,139.5"/>
          <polyline fill="none" stroke="#000000" points="82,82.8 39.3,147.5 39.3,147.5"/>
          <polyline fill="none" stroke="#000000" points="82,82.8 82,82.8 82,82.8 82,82.8 50.5,153.6"/>
          <polyline fill="none" stroke="#000000" points="82,82.7 82,82.8 82,82.8 62.6,157.8"/>
        </g>
      </g>
    </g>
  </g>
  <path fill="#ffffff" stroke="#000000" d="M 145.806 88.196 C 148.906 52.596 122.706 21.396 87.106 18.196 C 51.506 15.096 20.306 41.296 17.106 76.896 C 14.006 112.496 40.206 143.796 75.806 146.896 C 111.406 149.996 142.706 123.796 145.806 88.196 Z"/>
  <text fill="#ffffff" font-family="Verdana" font-size="7" style="white-space: pre; font-size: 7px;" x="79.306" y="14.496">0</text>
  <text transform="matrix(0.980581, 0.196116, -0.196116, 0.980581, 88.40609, 14.796437)" fill="#ffffff" font-family="Verdana" font-size="7" style="white-space: pre; font-size: 7.1px;">28</text>
  <text transform="matrix(0.874157, 0.485643, -0.485643, 0.874157, 110.606087, 20.296438)" fill="#ffffff" font-family="Verdana" font-size="7" style="white-space: pre; font-size: 7.2px;">26</text>
  <text transform="matrix(0.8, 0.6, -0.6, 0.8, 120.40609, 25.896435)" fill="#ffffff" font-family="Verdana" font-size="7" style="white-space: pre; font-size: 7px;">30</text>
  <text transform="matrix(0.707107, 0.707107, -0.707107, 0.707107, 129.406067, 32.996437)" fill="#ffffff" font-family="Verdana" font-size="7" style="white-space: pre; font-size: 6.9px;">11</text>
  <text transform="matrix(0.529999, 0.847998, -0.847998, 0.529999, 138.306076, 43.796436)" fill="#ffffff" font-family="Verdana" font-size="7" style="white-space: pre; font-size: 6.6px;">7</text>
  <text transform="matrix(0.406138, 0.913812, -0.913812, 0.406138, 143.006073, 51.396435)" fill="#ffffff" font-family="Verdana" font-size="7" style="white-space: pre; font-size: 6.9px;">20</text>
  <text transform="matrix(0.196116, 0.980581, -0.980581, 0.196116, 146.306076, 61.796436)" fill="#ffffff" font-family="Verdana" font-size="7" style="white-space: pre; font-size: 7.1px;">32</text>
  <text transform="matrix(0.099504, 0.995037, -0.995037, 0.099504, 149.20607, 72.496429)" fill="#ffffff" font-family="Verdana" font-size="7" style="white-space: pre; font-size: 7px;">17</text>
  <text transform="matrix(-0.099504, 0.995037, -0.995037, -0.099504, 150.406067, 86.596436)" fill="#ffffff" font-family="Verdana" font-size="7" style="white-space: pre; font-size: 7px;">5</text>
  <text transform="matrix(-0.196116, 0.980581, -0.980581, -0.196116, 148.70607, 95.396431)" fill="#ffffff" font-family="Verdana" font-size="7" style="white-space: pre; font-size: 7.1px;">22</text>
  <text transform="matrix(-0.406138, 0.913812, -0.913812, -0.406138, 146.006073, 106.396431)" fill="#ffffff" font-family="Verdana" font-size="7" style="white-space: pre; font-size: 6.9px;">34</text>
  <text transform="matrix(-0.529999, 0.847998, -0.847998, -0.529999, 141.20607, 116.79644)" fill="#ffffff" font-family="Verdana" font-size="7" style="white-space: pre; font-size: 6.6px;">15</text>
  <text transform="matrix(-0.707107, 0.707107, -0.707107, -0.707107, 133.306076, 128.296432)" fill="#ffffff" font-family="Verdana" font-size="7" style="white-space: pre; font-size: 6.9px;">3</text>
  <text transform="matrix(-0.8, 0.6, -0.6, -0.8, 126.606087, 134.696426)" fill="#ffffff" font-family="Verdana" font-size="7" style="white-space: pre; font-size: 7px;">24</text>
  <text transform="matrix(0.948683, 0.316228, -0.316228, 0.948683, 101.90609, 16.996437)" fill="#ffffff" font-family="Verdana" font-size="7" style="white-space: pre; font-size: 6.6px;">9</text>
  <text transform="matrix(-0.874157, 0.485643, -0.485643, -0.874157, 117.806084, 141.596436)" fill="#ffffff" font-family="Verdana" font-size="7" style="white-space: pre; font-size: 7.2px;">36</text>
  <text transform="matrix(-0.948683, 0.316228, -0.316228, -0.948683, 107.606087, 145.796432)" fill="#ffffff" font-family="Verdana" font-size="7" style="white-space: pre; font-size: 6.6px;">13</text>
  <text transform="matrix(-0.980581, 0.196116, -0.196116, -0.980581, 94.206078, 150.296432)" fill="#ffffff" font-family="Verdana" font-size="7" style="white-space: pre; font-size: 7.1px;">1</text>
  <text transform="matrix(-1, 0, 0, -1, 0, 0)" fill="#ffffff" font-family="Verdana" font-size="7" style="white-space: pre; font-size: 7px;" x="-85.506" y="-151.396">00</text>
  <text transform="matrix(-0.980581, -0.196116, 0.196116, -0.980581, 73.606087, 151.196426)" fill="#ffffff" font-family="Verdana" font-size="7" style="white-space: pre; font-size: 7.1px;">27</text>
  <text transform="matrix(-0.948683, -0.316228, 0.316228, -0.948683, 62.206081, 149.796432)" fill="#ffffff" font-family="Verdana" font-size="7" style="white-space: pre; font-size: 6.6px;">10</text>
  <text transform="matrix(-0.874157, -0.485643, 0.485643, -0.874157, 51.906086, 145.096436)" fill="#ffffff" font-family="Verdana" font-size="7" style="white-space: pre; font-size: 7.2px;">25</text>
  <text transform="matrix(-0.8, -0.6, 0.6, -0.8, 42.406086, 139.796432)" fill="#ffffff" font-family="Verdana" font-size="7" style="white-space: pre; font-size: 7px;">29</text>
  <text transform="matrix(-0.707107, -0.707107, 0.707107, -0.707107, 33.106083, 132.296432)" fill="#ffffff" font-family="Verdana" font-size="7" style="white-space: pre; font-size: 6.9px;">12</text>
  <text transform="matrix(-0.529999, -0.847998, 0.847998, -0.529999, 25.006079, 121.896431)" fill="#ffffff" font-family="Verdana" font-size="7" style="white-space: pre; font-size: 6.6px;">8</text>
  <text transform="matrix(-0.406138, -0.913812, 0.913812, -0.406138, 19.306082, 114.196442)" fill="#ffffff" font-family="Verdana" font-size="7" style="white-space: pre; font-size: 6.9px;">19</text>
  <text transform="matrix(-0.196116, -0.980581, 0.980581, -0.196116, 15.406083, 103.796432)" fill="#ffffff" font-family="Verdana" font-size="7" style="white-space: pre; font-size: 7.1px;">31</text>
  <text transform="matrix(-0.099504, -0.995037, 0.995037, -0.099504, 13.506082, 92.696442)" fill="#ffffff" font-family="Verdana" font-size="7" style="white-space: pre; font-size: 7px;">18</text>
  <text transform="matrix(0.099504, -0.995037, 0.995037, 0.099504, 12.906083, 78.896431)" fill="#ffffff" font-family="Verdana" font-size="7" style="white-space: pre; font-size: 7px;">6</text>
  <text transform="matrix(0.196116, -0.980581, 0.980581, 0.196116, 13.606084, 69.796432)" fill="#ffffff" font-family="Verdana" font-size="7" style="white-space: pre; font-size: 7.1px;">21</text>
  <text transform="matrix(0.406138, -0.913812, 0.913812, 0.406138, 17.306082, 58.696438)" fill="#ffffff" font-family="Verdana" font-size="7" style="white-space: pre; font-size: 6.9px;">33</text>
  <text transform="matrix(0.529999, -0.847998, 0.847998, 0.529999, 21.606083, 48.696438)" fill="#ffffff" font-family="Verdana" font-size="7" style="white-space: pre; font-size: 6.6px;">16</text>
  <text transform="matrix(0.707107, -0.707107, 0.707107, 0.707107, 29.80608, 37.496437)" fill="#ffffff" font-family="Verdana" font-size="7" style="white-space: pre; font-size: 6.9px;">4</text>
  <text transform="matrix(0.8, -0.6, 0.6, 0.8, 36.406086, 31.096437)" fill="#ffffff" font-family="Verdana" font-size="7" style="white-space: pre; font-size: 7px;">23</text>
  <text transform="matrix(0.874157, -0.485643, 0.485643, 0.874157, 44.906086, 24.596436)" fill="#ffffff" font-family="Verdana" font-size="7" style="white-space: pre; font-size: 7.2px;">35</text>
  <text transform="matrix(0.948683, -0.316228, 0.316228, 0.948683, 54.80608, 19.396437)" fill="#ffffff" font-family="Verdana" font-size="7" style="white-space: pre; font-size: 6.6px;">14</text>
  <text transform="matrix(0.980581, -0.196116, 0.196116, 0.980581, 68.106087, 15.696435)" fill="#ffffff" font-family="Verdana" font-size="7" style="white-space: pre; font-size: 7.1px;">2</text>
  <circle cx="81.506" cy="82.596" r="64" stroke="black" stroke-width="0" fill="#006600"/>
</svg>